<svg version="1.2" xmlns="http://www.w3.org/2000/svg" viewBox="0 0 1000 1000" width="1000" height="1000">
	<style>
		tspan { white-space:pre } 
		.s0 { fill: #000000 } 
		.t1 { font-size: 300px;fill: #ffffff;font-weight: 400;font-style: italic;font-family: "InterV-BoldItalic", "Inter V" } 
	</style>
	<path id="Tvar 1" fill-rule="evenodd" class="s0" d="m1007.38 0.38c0 0-0.02 15.63-0.05 42.97q-0.02 10.26-0.05 22.61-0.04 12.35-0.1 26.59c-0.04 9.47-0.11 19.54-0.18 30.14-0.09 10.59-0.2 21.7-0.33 33.27-0.15 11.55-0.33 23.55-0.54 35.94-0.24 12.36-0.52 25.09-0.84 38.14-0.36 13-0.77 26.31-1.24 39.85-0.52 13.48-1.1 27.18-1.75 41.04-0.72 13.79-1.51 27.73-2.39 41.75q-1.42 20.9-3.12 41.92-1.83 20.87-3.97 41.62-1.12 10.31-2.33 20.55-1.25 10.19-2.58 20.29-1.37 10.04-2.82 19.98-1.5 9.88-3.09 19.62-3.31 19.32-6.95 37.95-3.83 18.4-7.98 35.95-4.35 17.31-8.97 33.63-4.83 16.08-9.86 31.08-5.24 14.75-10.6 28.32-5.56 13.35-11.15 25.46-5.76 11.9-11.43 22.54-5.83 10.44-11.43 19.61-5.74 9-11.09 16.73-5.46 7.59-10.38 13.93-5 6.24-9.29 11.24c-11.82 12.84-18.87 19.81-18.87 19.81 0 0-8.68 8.65-24.39 23.14q-6.06 5.26-13.51 11.39-7.55 6.03-16.48 12.73-9.05 6.56-19.46 13.59-10.55 6.86-22.43 14-12.04 6.95-25.38 14.01-13.51 6.84-28.25 13.64-14.92 6.57-31 12.98-16.27 6.16-33.59 12.05-17.52 5.65-35.95 10.96-18.64 5.07-38.05 9.75-9.77 2.25-19.71 4.39-9.98 2.09-20.11 4.08-10.17 1.93-20.46 3.75-10.33 1.77-20.76 3.44-10.48 1.62-21.02 3.13-10.58 1.46-21.21 2.83-10.67 1.32-21.36 2.54-10.72 1.18-21.44 2.26-21.54 2.06-42.91 3.77c-14.3 1.05-28.5 2-42.54 2.85-14.1 0.78-28.02 1.47-41.69 2.08-13.73 0.56-27.21 1.04-40.37 1.46-13.2 0.37-26.07 0.69-38.55 0.97-12.51 0.23-24.62 0.43-36.27 0.6-11.67 0.14-22.87 0.25-33.54 0.34-10.68 0.08-20.82 0.13-30.36 0.18q-14.33 0.05-26.76 0.07-12.42 0.02-22.75 0.02c-27.5-0.01-43.22-0.02-43.22-0.02 0 0 0.02-15.63 0.05-42.97q0.02-10.26 0.05-22.62 0.04-12.35 0.1-26.61c0.06-9.48 0.12-19.57 0.2-30.19 0.1-10.61 0.21-21.75 0.35-33.36 0.16-11.59 0.36-23.64 0.58-36.09 0.26-12.42 0.56-25.23 0.91-38.37 0.39-13.1 0.83-26.52 1.34-40.2 0.56-13.62 1.18-27.5 1.89-41.55 0.77-13.99 1.62-28.15 2.57-42.42q1.53-21.32 3.36-42.83 1.98-21.39 4.29-42.77 1.21-10.63 2.51-21.21 1.35-10.56 2.78-21.04 1.48-10.44 3.05-20.8 1.62-10.31 3.33-20.51 3.57-20.28 7.5-39.97 4.14-19.51 8.62-38.26 4.69-18.57 9.68-36.24 5.21-17.48 10.64-33.94 5.65-16.27 11.44-31.4 6-14.96 12.03-28.7 6.22-13.58 12.34-25.86 6.3-12.14 12.34-22.93 6.19-10.67 11.97-19.96 5.9-9.18 11.2-16.95 5.4-7.69 10.03-13.94c12.76-16.28 20.37-25.29 20.37-25.29 0 0 8.12-6.6 22.89-17.66q5.72-4.01 12.78-8.69 7.15-4.6 15.65-9.71 8.62-5 18.58-10.36 10.1-5.24 21.52-10.69 11.59-5.29 24.47-10.68 13.07-5.22 27.37-10.4 14.5-5.01 30.16-9.9 15.87-4.7 32.81-9.19 17.15-4.31 35.24-8.36 18.31-3.86 37.41-7.43 9.63-1.71 19.43-3.35 9.85-1.59 19.84-3.1 10.05-1.47 20.22-2.86 10.22-1.35 20.54-2.62 10.37-1.23 20.81-2.39 10.49-1.11 21.03-2.15 10.58-1.01 21.19-1.94 10.65-0.89 21.29-1.72 21.42-1.56 42.67-2.86c14.23-0.8 28.37-1.52 42.35-2.17 14.05-0.59 27.92-1.12 41.56-1.58 13.69-0.42 27.14-0.79 40.27-1.11 13.17-0.28 26.02-0.52 38.49-0.73 12.49-0.18 24.59-0.33 36.23-0.45 11.66-0.11 22.85-0.19 33.51-0.26 10.67-0.05 20.81-0.09 30.34-0.12 9.55-0.03 18.49-0.05 26.76-0.06q12.43-0.01 22.75-0.01c27.5 0.01 43.22 0.02 43.22 0.02z"/>
	<text id="WC" style="transform: matrix(1.693,0,0,1.693,32.202,316.773)">
		<tspan x="1.9" y="218.2" class="t1">W</tspan><tspan  y="218.2" class="t1">C
</tspan>
	</text>
</svg>